<?xml version="1.0"?>
<svg xmlns="http://www.w3.org/2000/svg" xmlns:xlink="http://www.w3.org/1999/xlink" xmlns:svgjs="http://svgjs.com/svgjs" version="1.1" width="512" height="512" x="0" y="0" viewBox="0 0 512 512" style="enable-background:new 0 0 512 512" xml:space="preserve" class=""><g>
<g xmlns="http://www.w3.org/2000/svg">
	<g>
		<path d="M130,186c-5.52,0-10,4.48-10,10s4.48,10,10,10s10-4.48,10-10S135.52,186,130,186z" fill="#222222" data-original="#000000" style="" class=""/>
	</g>
</g>
<g xmlns="http://www.w3.org/2000/svg">
	<g>
		<path d="M392,186V96c0-16.575-13.425-30-30-30c-16.542,0-30,13.458-30,30v8.471C284.221,133.74,229.322,141.933,181.57,146H80    c-44.036,0-80,35.621-80,80c0,36.626,25.25,68.473,60,77.449V406c0,22.056,17.944,40,40,40h30    c28.194,0,40.827-35.698,18.771-53.408c-5.574-4.475-8.771-12.64-8.771-22.401V306h41.537    c48.424,4.188,99.216,22.972,151.039,55.844C335.303,375.597,347.458,386,362,386c16.542,0,30-13.458,30-30v-90    c22.098,0,40-17.898,40-40C432,203.944,414.056,186,392,186z M130,426h-30c-11.028,0-20-8.972-20-20V306h40v64.19    c0,15.857,5.923,29.706,16.249,37.997C143.59,414.084,139.44,426,130,426z M172,286H80c-2.836,0-5.693-0.202-8.501-0.602    C42.14,281.25,20,255.714,20,226c0-33.098,26.779-60,60-60h92V286z M332,337.996c-47.629-28.481-94.611-45.603-140-51.018V165.141    c44.583-4.234,94.405-12.672,140-37.574V337.996z M372,356c0,5.514-4.486,10-10,10c-5.514,0-10-4.486-10-10V96    c0-5.514,4.486-10,10-10c5.52,0,10,4.479,10,10V356z M392,246v-40c11.028,0,20,8.972,20,20C412,237.046,403.046,246,392,246z" fill="#222222" data-original="#000000" style="" class=""/>
	</g>
</g>
<g xmlns="http://www.w3.org/2000/svg">
	<g>
		<path d="M502,206h-40c-5.522,0-10,4.478-10,10c0,5.522,4.478,10,10,10h40c5.522,0,10-4.478,10-10C512,210.478,507.522,206,502,206    z" fill="#222222" data-original="#000000" style="" class=""/>
	</g>
</g>
<g xmlns="http://www.w3.org/2000/svg">
	<g>
		<path d="M478.51,91c-2.761-4.781-8.877-6.422-13.66-3.66l-34.64,20c-4.783,2.762-6.422,8.877-3.66,13.66    c2.771,4.798,8.891,6.414,13.66,3.66l34.64-20C479.633,101.898,481.271,95.783,478.51,91z" fill="#222222" data-original="#000000" style="" class=""/>
	</g>
</g>
<g xmlns="http://www.w3.org/2000/svg">
	<g>
		<path d="M474.85,327.34l-34.64-20c-4.784-2.762-10.898-1.122-13.66,3.66c-2.762,4.783-1.123,10.898,3.66,13.66l34.64,20    c1.575,0.909,3.294,1.342,4.99,1.342c3.456,0,6.817-1.794,8.67-5.002C481.272,336.217,479.633,330.102,474.85,327.34z" fill="#222222" data-original="#000000" style="" class=""/>
	</g>
</g>
<g xmlns="http://www.w3.org/2000/svg">
	<g>
		<path d="M90,186H80c-22.056,0-40,17.944-40,40c0,5.522,4.478,10,10,10s10-4.478,10-10c0-11.028,8.972-20,20-20h10    c5.522,0,10-4.478,10-10C100,190.478,95.522,186,90,186z" fill="#222222" data-original="#000000" style="" class=""/>
	</g>
</g>
<g xmlns="http://www.w3.org/2000/svg">
</g>
<g xmlns="http://www.w3.org/2000/svg">
</g>
<g xmlns="http://www.w3.org/2000/svg">
</g>
<g xmlns="http://www.w3.org/2000/svg">
</g>
<g xmlns="http://www.w3.org/2000/svg">
</g>
<g xmlns="http://www.w3.org/2000/svg">
</g>
<g xmlns="http://www.w3.org/2000/svg">
</g>
<g xmlns="http://www.w3.org/2000/svg">
</g>
<g xmlns="http://www.w3.org/2000/svg">
</g>
<g xmlns="http://www.w3.org/2000/svg">
</g>
<g xmlns="http://www.w3.org/2000/svg">
</g>
<g xmlns="http://www.w3.org/2000/svg">
</g>
<g xmlns="http://www.w3.org/2000/svg">
</g>
<g xmlns="http://www.w3.org/2000/svg">
</g>
<g xmlns="http://www.w3.org/2000/svg">
</g>
</g></svg>
