<?xml version="1.0"?>
<svg xmlns="http://www.w3.org/2000/svg" xmlns:xlink="http://www.w3.org/1999/xlink" xmlns:svgjs="http://svgjs.com/svgjs" version="1.1" width="512" height="512" x="0" y="0" viewBox="0 0 511.97 511.97" style="enable-background:new 0 0 512 512" xml:space="preserve" class=""><g><g xmlns="http://www.w3.org/2000/svg" id="XMLID_2099_"><g id="XMLID_1386_"><path id="XMLID_1448_" d="m466.929 72.158c-.859-3.561-3.596-6.367-7.134-7.314-13.71-3.673-27.935-3.208-41.161 1.182 7.32-4.644 12.989-11.933 15.404-20.946 2.476-9.239 1.205-18.889-3.577-27.172s-12.503-14.209-21.743-16.684c-19.072-5.109-38.744 6.249-43.855 25.32-2.416 9.017-1.146 18.165 2.874 25.848-9.26-10.418-21.35-17.937-35.063-21.611-3.538-.95-7.311.114-9.834 2.768-2.524 2.654-3.396 6.476-2.271 9.961 8.131 25.205 9.608 51.867 4.411 77.685l-3.548-.951c-5.336-1.429-10.817 1.737-12.247 7.071-1.357 5.063 1.43 10.254 6.278 11.992l-11.279 42.095c-11.92 44.484-46.735 80.309-90.861 93.494-3.326.994-5.898 3.641-6.796 6.993l-7.572 28.258c-2.306-5.477-4.26-11.129-5.815-16.933l-11.247-41.976 4.153-1.113c5.334-1.429 8.5-6.913 7.071-12.248-1.43-5.334-6.91-8.503-12.248-7.071l-5.583 1.496-.714-46.646c-.132-8.623-4.155-16.549-11.037-21.746-5.813-4.39-12.94-6.274-20.033-5.411.219-.51.46-1.014.742-1.503 1.872-3.243 4.896-5.563 8.513-6.532 2.562-.686 4.746-2.362 6.072-4.659s1.686-5.026.999-7.588l-10.355-38.646c-.687-2.562-2.363-4.746-4.66-6.072-2.296-1.326-5.024-1.685-7.588-.999-3.619.97-7.396.471-10.638-1.4-3.244-1.873-5.563-4.896-6.533-8.514-.687-2.562-2.362-4.746-4.659-6.072-2.296-1.326-5.024-1.685-7.588-.999l-38.646 10.355c-2.562.687-4.746 2.362-6.072 4.659s-1.686 5.026-.999 7.588c.969 3.617.472 7.396-1.401 10.639-1.872 3.243-4.896 5.563-8.513 6.532-5.334 1.429-8.5 6.913-7.071 12.248l10.355 38.646c1.43 5.334 6.913 8.501 12.247 7.071 4.298-1.151 8.669-.158 11.991 2.31-6.671 2.779-11.979 8.013-14.848 14.791-3.361 7.942-2.881 16.817 1.315 24.35l22.705 40.754-5.583 1.496c-5.334 1.429-8.5 6.913-7.071 12.248 1.197 4.468 5.237 7.414 9.653 7.414.856 0 1.728-.111 2.595-.343l4.153-1.113 11.248 41.976c11.9 44.413-.32 92.767-31.89 126.194-2.383 2.523-3.288 6.102-2.389 9.454l13.873 51.774c.687 2.562 2.362 4.746 4.659 6.072 1.534.885 3.26 1.34 5 1.34.867 0 1.737-.113 2.588-.341l201.746-54.058c2.563-.687 4.746-2.362 6.072-4.659s1.686-5.026.999-7.588l-13.873-51.774c-.898-3.353-3.471-6-6.796-6.993-21.048-6.289-39.965-17.748-55.291-32.834l36.361 9.743c5.339 1.431 10.818-1.737 12.247-7.071 1.43-5.335-1.736-10.818-7.071-12.248l-55.56-14.887 8.718-32.534 198.324 53.141-8.717 32.534-55.789-14.948c-5.338-1.429-10.817 1.737-12.247 7.071-1.43 5.335 1.736 10.818 7.071 12.248l65.448 17.537c.852.228 1.721.341 2.588.341 1.74 0 3.467-.455 5-1.34 2.297-1.326 3.973-3.51 4.659-6.072l13.894-51.853c.898-3.353-.006-6.931-2.389-9.455-31.622-33.482-43.862-81.915-31.942-126.398l11.282-42.108c.595.108 1.189.181 1.777.181 4.415 0 8.456-2.947 9.653-7.414 1.43-5.335-1.736-10.818-7.071-12.248l-3.548-.951c8.41-24.962 23.02-47.311 42.663-65.071 2.717-2.457 3.874-6.203 3.015-9.763zm-82.748-40.438c1.891-7.055 8.294-11.719 15.273-11.719 1.351 0 2.723.175 4.088.541 4.078 1.093 7.487 3.708 9.599 7.365s2.672 7.917 1.579 11.995c-2.257 8.419-10.941 13.431-19.361 11.178-8.419-2.255-13.434-10.941-11.178-19.36zm-317.557 98.85c9.51-5.971 15.508-16.36 15.924-27.582l22.211-5.951c2.912 4.657 6.937 8.559 11.828 11.383 4.891 2.823 10.283 4.358 15.771 4.551l5.948 22.198c-4.657 2.911-8.559 6.937-11.383 11.828s-4.358 10.283-4.552 15.771l-22.211 5.951c-5.971-9.51-16.36-15.508-27.582-15.924zm17.014 74.4c-1.176-2.111-1.31-4.597-.369-6.822s2.82-3.86 5.153-4.485l56.354-15.1c2.334-.623 4.777-.149 6.705 1.307s3.055 3.676 3.092 6.092l.791 51.678-46.573 12.479zm39.546 106.989-11.248-41.976 50.638-13.568 11.248 41.977c6.765 25.246 19.968 48.497 38.184 67.24 11.101 11.423 23.936 21.018 37.93 28.475l-144.813 38.802c8.391-13.456 14.71-28.184 18.612-43.625 6.404-25.34 6.213-52.079-.551-77.325zm-22.994 177.763-8.697-32.456 182.427-48.881 8.697 32.456zm307.756-164.215-160.698-43.059c14.028-7.471 26.894-17.086 38.019-28.533 18.241-18.77 31.463-42.054 38.237-67.335l11.269-42.054 66.336 17.775-11.269 42.054c-6.774 25.281-6.966 52.057-.553 77.433 3.911 15.475 10.246 30.235 18.659 43.719zm-6.063-183.705-57.532-15.416c4.685-22.427 4.892-45.437.65-67.848 5.393 4.001 10.002 9.059 13.557 14.97 2.774 4.611 8.697 6.201 13.409 3.596 5.582-3.087 11.756-5.143 18.034-6.023 4.997 3.901 9.315 8.768 12.607 14.234 2.776 4.61 8.702 6.195 13.41 3.589 6.034-3.341 12.555-5.417 19.225-6.186-14.874 17.283-26.198 37.31-33.36 59.084z" fill="#222222" data-original="#000000" style="" class=""/><path id="XMLID_1499_" d="m311.005 355.46c-2.64 0-5.22 1.07-7.08 2.93-1.859 1.86-2.93 4.44-2.93 7.07s1.07 5.21 2.93 7.07 4.44 2.93 7.08 2.93c2.63 0 5.2-1.07 7.07-2.93 1.86-1.86 2.93-4.44 2.93-7.07s-1.069-5.21-2.93-7.07c-1.869-1.86-4.44-2.93-7.07-2.93z" fill="#222222" data-original="#000000" style="" class=""/></g></g></g></svg>
