<?xml version="1.0"?>
<svg xmlns="http://www.w3.org/2000/svg" xmlns:xlink="http://www.w3.org/1999/xlink" xmlns:svgjs="http://svgjs.com/svgjs" version="1.1" width="512" height="512" x="0" y="0" viewBox="0 0 512 512" style="enable-background:new 0 0 512 512" xml:space="preserve" class=""><g>
<g xmlns="http://www.w3.org/2000/svg">
	<g>
		<path d="M368.569,118.93c-1.859-1.86-4.439-2.93-7.069-2.93s-5.21,1.07-7.07,2.93c-1.86,1.86-2.93,4.44-2.93,7.07    s1.069,5.21,2.93,7.07c1.861,1.86,4.44,2.93,7.07,2.93s5.21-1.07,7.069-2.93c1.86-1.86,2.931-4.44,2.931-7.07    S370.43,120.79,368.569,118.93z" fill="#222222" data-original="#000000" style="" class=""/>
	</g>
</g>
<g xmlns="http://www.w3.org/2000/svg">
	<g>
		<path d="M462,116h-63.75c-5.522,0-10,4.477-10,10s4.478,10,10,10H462c16.542,0,30,13.458,30,30v144c0,16.542-13.458,30-30,30h-14    c-2.652,0-5.195,1.054-7.071,2.929L408,375.858l-32.929-32.929C373.195,341.054,370.652,340,368,340H236    c-16.542,0-30-13.458-30-30v-36c0-5.523-4.478-10-10-10c-5.522,0-10,4.477-10,10v36c0,27.57,22.43,50,50,50h127.857l37.071,37.071    C402.882,399.024,405.44,400,408,400s5.118-0.976,7.071-2.929L452.143,360H462c27.57,0,50-22.43,50-50V166    C512,138.43,489.57,116,462,116z" fill="#222222" data-original="#000000" style="" class=""/>
	</g>
</g>
<g xmlns="http://www.w3.org/2000/svg">
	<g>
		<path d="M276.025,0h-226c-27.57,0-50,22.43-50,50v144c-0.001,27.57,22.429,50,49.999,50h21.001l37.071,37.071    c1.953,1.953,4.512,2.929,7.071,2.929s5.118-0.976,7.071-2.929L159.311,244h116.714c27.57,0,50-22.43,50-50V50    C326.025,22.43,303.595,0,276.025,0z M306.024,194c0,16.542-13.458,30-30,30H155.168c-2.652,0-5.195,1.054-7.071,2.929    l-32.929,32.929l-32.929-32.929C80.363,225.054,77.82,224,75.168,224H50.024c-16.542,0-30-13.458-30-30V50    c0-16.542,13.458-30,30-30h226c16.542,0,30,13.458,30,30V194z" fill="#222222" data-original="#000000" style="" class=""/>
	</g>
</g>
<g xmlns="http://www.w3.org/2000/svg">
	<g>
		<path d="M406.175,276.11l-35.462-84c-1.564-3.703-5.193-6.11-9.213-6.11c-4.02,0-7.649,2.407-9.213,6.111l-35.462,84    c-2.147,5.088,0.235,10.954,5.323,13.102c5.09,2.146,10.954-0.236,13.103-5.324l5.012-11.873h42.474l5.012,11.873    c1.612,3.819,5.317,6.113,9.217,6.113c1.297,0,2.616-0.254,3.886-0.79C405.94,287.064,408.323,281.198,406.175,276.11z     M348.706,252.016l12.793-30.304l12.794,30.304H348.706z" fill="#222222" data-original="#000000" style="" class=""/>
	</g>
</g>
<g xmlns="http://www.w3.org/2000/svg">
	<g>
		<path d="M209.454,156.948l-9.49-6.988c2.921-6.041,4.561-12.812,4.561-19.959v-16c0-25.364-20.636-46-46-46s-46,20.636-46,46v16    C112.524,155.364,133.16,176,158.524,176c10.997,0,21.102-3.884,29.024-10.345l10.046,7.398c1.785,1.315,3.862,1.948,5.922,1.948    c3.07,0,6.1-1.409,8.061-4.071C214.851,166.483,213.901,160.223,209.454,156.948z M184.524,130c0,2.69-0.411,5.285-1.172,7.727    l-10.564-7.779c-4.447-3.276-10.706-2.325-13.982,2.123c-3.274,4.447-2.324,10.707,2.123,13.982l9.544,7.028    c-3.58,1.861-7.642,2.92-11.948,2.92c-14.337,0-26-11.664-26-26V114h-0.001c0-14.336,11.663-26,26-26c14.337,0,26,11.664,26,26    V130z" fill="#222222" data-original="#000000" style="" class=""/>
	</g>
</g>
<g xmlns="http://www.w3.org/2000/svg">
	<g>
		<path d="M388.729,446.683l-86.665-46.505c-1.454-0.78-3.078-1.188-4.729-1.188H35.287C15.83,398.989,0,414.819,0,434.276v42.436    C0,496.17,15.83,512,35.287,512h262.048c1.65,0,3.274-0.408,4.729-1.188l86.665-46.506c3.246-1.742,5.271-5.127,5.271-8.812    S391.975,448.425,388.729,446.683z M65.254,492H35.287C26.857,492,20,485.142,20,476.712v-42.436    c0-8.43,6.857-15.288,15.287-15.288h29.967V492z M287.335,492H85.254v-27.295H212.5c5.522,0,10-4.477,10-10s-4.478-10-10-10    H85.254v-25.716h202.081V492z M307.335,485.285v-59.581l55.516,29.79L307.335,485.285z" fill="#222222" data-original="#000000" style="" class=""/>
	</g>
</g>
<g xmlns="http://www.w3.org/2000/svg">
	<g>
		<path d="M258.069,447.63c-1.859-1.86-4.439-2.92-7.069-2.92s-5.21,1.06-7.07,2.92c-1.86,1.86-2.93,4.44-2.93,7.07    c0,2.64,1.069,5.22,2.93,7.07c1.86,1.87,4.44,2.94,7.07,2.94s5.21-1.07,7.069-2.94c1.86-1.86,2.931-4.43,2.931-7.07    C261,452.07,259.93,449.5,258.069,447.63z" fill="#222222" data-original="#000000" style="" class=""/>
	</g>
</g>
<g xmlns="http://www.w3.org/2000/svg">
</g>
<g xmlns="http://www.w3.org/2000/svg">
</g>
<g xmlns="http://www.w3.org/2000/svg">
</g>
<g xmlns="http://www.w3.org/2000/svg">
</g>
<g xmlns="http://www.w3.org/2000/svg">
</g>
<g xmlns="http://www.w3.org/2000/svg">
</g>
<g xmlns="http://www.w3.org/2000/svg">
</g>
<g xmlns="http://www.w3.org/2000/svg">
</g>
<g xmlns="http://www.w3.org/2000/svg">
</g>
<g xmlns="http://www.w3.org/2000/svg">
</g>
<g xmlns="http://www.w3.org/2000/svg">
</g>
<g xmlns="http://www.w3.org/2000/svg">
</g>
<g xmlns="http://www.w3.org/2000/svg">
</g>
<g xmlns="http://www.w3.org/2000/svg">
</g>
<g xmlns="http://www.w3.org/2000/svg">
</g>
</g></svg>
